<?xml version="1.0" encoding="UTF-8"?>
<svg xmlns="http://www.w3.org/2000/svg" xmlns:xlink="http://www.w3.org/1999/xlink" width="150pt" height="149.999998pt" viewBox="0 0 150 149.999998" version="1.2">
<defs>
<clipPath id="clip1">
  <path d="M 8 8 L 143 8 L 143 143 L 8 143 Z M 8 8 "/>
</clipPath>
<clipPath id="clip2">
  <path d="M 150.582031 16.164062 L 134.476562 150.199219 L -0.304688 134.003906 L 15.800781 -0.03125 Z M 150.582031 16.164062 "/>
</clipPath>
<clipPath id="clip3">
  <path d="M 150.582031 16.164062 L 134.476562 150.199219 L -0.304688 134.003906 L 15.800781 -0.03125 Z M 150.582031 16.164062 "/>
</clipPath>
<clipPath id="clip4">
  <path d="M 150.582031 16.164062 L 134.449219 150.410156 L -0.609375 134.179688 L 15.523438 -0.0664062 Z M 150.582031 16.164062 "/>
</clipPath>
<clipPath id="clip5">
  <path d="M 58 76 L 143 76 L 143 143 L 58 143 Z M 58 76 "/>
</clipPath>
<clipPath id="clip6">
  <path d="M 150.582031 16.164062 L 134.476562 150.199219 L -0.304688 134.003906 L 15.800781 -0.03125 Z M 150.582031 16.164062 "/>
</clipPath>
<clipPath id="clip7">
  <path d="M 150.582031 16.164062 L 134.476562 150.199219 L -0.304688 134.003906 L 15.800781 -0.03125 Z M 150.582031 16.164062 "/>
</clipPath>
<clipPath id="clip8">
  <path d="M 150.582031 16.164062 L 134.449219 150.410156 L -0.609375 134.179688 L 15.523438 -0.0664062 Z M 150.582031 16.164062 "/>
</clipPath>
<clipPath id="clip9">
  <path d="M 8 8 L 143 8 L 143 143 L 8 143 Z M 8 8 "/>
</clipPath>
<clipPath id="clip10">
  <path d="M 150.582031 16.164062 L 134.476562 150.199219 L -0.304688 134.003906 L 15.800781 -0.03125 Z M 150.582031 16.164062 "/>
</clipPath>
<clipPath id="clip11">
  <path d="M 150.582031 16.164062 L 134.476562 150.199219 L -0.304688 134.003906 L 15.800781 -0.03125 Z M 150.582031 16.164062 "/>
</clipPath>
<clipPath id="clip12">
  <path d="M 150.582031 16.164062 L 134.449219 150.410156 L -0.609375 134.179688 L 15.523438 -0.0664062 Z M 150.582031 16.164062 "/>
</clipPath>
<clipPath id="clip13">
  <path d="M 113 47 L 127 47 L 127 69 L 113 69 Z M 113 47 "/>
</clipPath>
<clipPath id="clip14">
  <path d="M 150.582031 16.164062 L 134.476562 150.199219 L -0.304688 134.003906 L 15.800781 -0.03125 Z M 150.582031 16.164062 "/>
</clipPath>
<clipPath id="clip15">
  <path d="M 150.582031 16.164062 L 134.476562 150.199219 L -0.304688 134.003906 L 15.800781 -0.03125 Z M 150.582031 16.164062 "/>
</clipPath>
<clipPath id="clip16">
  <path d="M 150.582031 16.164062 L 134.449219 150.410156 L -0.609375 134.179688 L 15.523438 -0.0664062 Z M 150.582031 16.164062 "/>
</clipPath>
<clipPath id="clip17">
  <path d="M 72 18 L 92 18 L 92 39 L 72 39 Z M 72 18 "/>
</clipPath>
<clipPath id="clip18">
  <path d="M 150.582031 16.164062 L 134.476562 150.199219 L -0.304688 134.003906 L 15.800781 -0.03125 Z M 150.582031 16.164062 "/>
</clipPath>
<clipPath id="clip19">
  <path d="M 150.582031 16.164062 L 134.476562 150.199219 L -0.304688 134.003906 L 15.800781 -0.03125 Z M 150.582031 16.164062 "/>
</clipPath>
<clipPath id="clip20">
  <path d="M 150.582031 16.164062 L 134.449219 150.410156 L -0.609375 134.179688 L 15.523438 -0.0664062 Z M 150.582031 16.164062 "/>
</clipPath>
<clipPath id="clip21">
  <path d="M 39 74 L 54 74 L 54 90 L 39 90 Z M 39 74 "/>
</clipPath>
<clipPath id="clip22">
  <path d="M 150.582031 16.164062 L 134.476562 150.199219 L -0.304688 134.003906 L 15.800781 -0.03125 Z M 150.582031 16.164062 "/>
</clipPath>
<clipPath id="clip23">
  <path d="M 150.582031 16.164062 L 134.476562 150.199219 L -0.304688 134.003906 L 15.800781 -0.03125 Z M 150.582031 16.164062 "/>
</clipPath>
<clipPath id="clip24">
  <path d="M 150.582031 16.164062 L 134.449219 150.410156 L -0.609375 134.179688 L 15.523438 -0.0664062 Z M 150.582031 16.164062 "/>
</clipPath>
<clipPath id="clip25">
  <path d="M 43 112 L 62 112 L 62 130 L 43 130 Z M 43 112 "/>
</clipPath>
<clipPath id="clip26">
  <path d="M 150.582031 16.164062 L 134.476562 150.199219 L -0.304688 134.003906 L 15.800781 -0.03125 Z M 150.582031 16.164062 "/>
</clipPath>
<clipPath id="clip27">
  <path d="M 150.582031 16.164062 L 134.476562 150.199219 L -0.304688 134.003906 L 15.800781 -0.03125 Z M 150.582031 16.164062 "/>
</clipPath>
<clipPath id="clip28">
  <path d="M 150.582031 16.164062 L 134.449219 150.410156 L -0.609375 134.179688 L 15.523438 -0.0664062 Z M 150.582031 16.164062 "/>
</clipPath>
<clipPath id="clip29">
  <path d="M 19 68 L 31 68 L 31 92 L 19 92 Z M 19 68 "/>
</clipPath>
<clipPath id="clip30">
  <path d="M 150.582031 16.164062 L 134.476562 150.199219 L -0.304688 134.003906 L 15.800781 -0.03125 Z M 150.582031 16.164062 "/>
</clipPath>
<clipPath id="clip31">
  <path d="M 150.582031 16.164062 L 134.476562 150.199219 L -0.304688 134.003906 L 15.800781 -0.03125 Z M 150.582031 16.164062 "/>
</clipPath>
<clipPath id="clip32">
  <path d="M 150.582031 16.164062 L 134.449219 150.410156 L -0.609375 134.179688 L 15.523438 -0.0664062 Z M 150.582031 16.164062 "/>
</clipPath>
<clipPath id="clip33">
  <path d="M 67 63 L 87 63 L 87 87 L 67 87 Z M 67 63 "/>
</clipPath>
<clipPath id="clip34">
  <path d="M 150.582031 16.164062 L 134.476562 150.199219 L -0.304688 134.003906 L 15.800781 -0.03125 Z M 150.582031 16.164062 "/>
</clipPath>
<clipPath id="clip35">
  <path d="M 150.582031 16.164062 L 134.476562 150.199219 L -0.304688 134.003906 L 15.800781 -0.03125 Z M 150.582031 16.164062 "/>
</clipPath>
<clipPath id="clip36">
  <path d="M 150.582031 16.164062 L 134.449219 150.410156 L -0.609375 134.179688 L 15.523438 -0.0664062 Z M 150.582031 16.164062 "/>
</clipPath>
<clipPath id="clip37">
  <path d="M 86 96 L 100 96 L 100 112 L 86 112 Z M 86 96 "/>
</clipPath>
<clipPath id="clip38">
  <path d="M 150.582031 16.164062 L 134.476562 150.199219 L -0.304688 134.003906 L 15.800781 -0.03125 Z M 150.582031 16.164062 "/>
</clipPath>
<clipPath id="clip39">
  <path d="M 150.582031 16.164062 L 134.476562 150.199219 L -0.304688 134.003906 L 15.800781 -0.03125 Z M 150.582031 16.164062 "/>
</clipPath>
<clipPath id="clip40">
  <path d="M 150.582031 16.164062 L 134.449219 150.410156 L -0.609375 134.179688 L 15.523438 -0.0664062 Z M 150.582031 16.164062 "/>
</clipPath>
<clipPath id="clip41">
  <path d="M 31 30 L 43 30 L 43 46 L 31 46 Z M 31 30 "/>
</clipPath>
<clipPath id="clip42">
  <path d="M 150.582031 16.164062 L 134.476562 150.199219 L -0.304688 134.003906 L 15.800781 -0.03125 Z M 150.582031 16.164062 "/>
</clipPath>
<clipPath id="clip43">
  <path d="M 150.582031 16.164062 L 134.476562 150.199219 L -0.304688 134.003906 L 15.800781 -0.03125 Z M 150.582031 16.164062 "/>
</clipPath>
<clipPath id="clip44">
  <path d="M 150.582031 16.164062 L 134.449219 150.410156 L -0.609375 134.179688 L 15.523438 -0.0664062 Z M 150.582031 16.164062 "/>
</clipPath>
</defs>
<g id="surface1">
<g clip-path="url(#clip1)" clip-rule="nonzero">
<g clip-path="url(#clip2)" clip-rule="nonzero">
<g clip-path="url(#clip3)" clip-rule="nonzero">
<g clip-path="url(#clip4)" clip-rule="nonzero">
<path style=" stroke:none;fill-rule:nonzero;fill:rgb(90.589905%,69.799805%,33.329773%);fill-opacity:1;" d="M 76.175781 141.964844 C 76.378906 139.53125 77.15625 137.332031 78.511719 135.367188 C 79.484375 133.269531 80.925781 131.527344 82.832031 130.140625 C 84.636719 128.613281 86.671875 127.628906 88.941406 127.183594 C 91.171875 126.332031 93.496094 126.097656 95.910156 126.484375 L 97.042969 126.617188 C 97.097656 126.625 97.152344 126.632812 97.207031 126.636719 C 98.707031 126.835938 99.929688 125.566406 99.691406 124.070312 C 99.449219 122.554688 99.40625 121.015625 99.589844 119.488281 C 100.777344 109.625 109.726562 103.289062 119.320312 104.007812 C 119.746094 104.039062 120.164062 104.089844 120.574219 104.15625 C 122.066406 104.402344 123.359375 103.152344 123.113281 101.660156 C 122.863281 100.125 122.816406 98.5625 123.003906 97.011719 C 124.1875 87.148438 133.140625 80.8125 142.734375 81.53125 L 142.742188 81.53125 C 145.929688 45.074219 119.167969 12.464844 82.226562 8.90625 C 47.347656 5.546875 15.355469 30.027344 9.582031 64.546875 C 3.214844 102.574219 29.933594 137.796875 67.824219 142.347656 C 70.636719 142.6875 73.429688 142.835938 76.191406 142.824219 C 76.183594 142.539062 76.183594 142.25 76.175781 141.964844 "/>
</g>
</g>
</g>
</g>
<g clip-path="url(#clip5)" clip-rule="nonzero">
<g clip-path="url(#clip6)" clip-rule="nonzero">
<g clip-path="url(#clip7)" clip-rule="nonzero">
<g clip-path="url(#clip8)" clip-rule="nonzero">
<path style=" stroke:none;fill-rule:nonzero;fill:rgb(67.83905%,51.759338%,24.708557%);fill-opacity:1;" d="M 142.941406 78.3125 C 140.132812 76.910156 137.152344 75.855469 134.324219 76.167969 C 128.664062 76.796875 125.640625 82.664062 122.808594 86.886719 C 118.976562 92.605469 115.421875 94.257812 109.238281 96.640625 C 103.332031 98.914062 101.308594 104.597656 97.484375 109.128906 C 95.792969 111.128906 93.859375 112.976562 91.503906 114.171875 C 88.792969 115.558594 86.21875 115.128906 84.949219 118.066406 C 82.515625 123.707031 81.21875 127.949219 75.621094 131.417969 C 70.578125 134.546875 64.25 135.367188 59.902344 139.640625 C 59.558594 139.976562 59.257812 140.316406 58.972656 140.664062 C 61.84375 141.40625 64.792969 141.984375 67.824219 142.347656 C 70.636719 142.6875 73.429688 142.835938 76.191406 142.824219 C 76.183594 142.539062 76.183594 142.25 76.175781 141.964844 C 76.378906 139.53125 77.15625 137.332031 78.511719 135.367188 C 79.484375 133.269531 80.925781 131.527344 82.832031 130.140625 C 84.636719 128.613281 86.671875 127.628906 88.941406 127.183594 C 91.171875 126.332031 93.496094 126.097656 95.910156 126.484375 L 97.042969 126.617188 C 97.097656 126.625 97.152344 126.632812 97.207031 126.636719 C 98.707031 126.835938 99.929688 125.566406 99.691406 124.070312 C 99.449219 122.554688 99.40625 121.015625 99.589844 119.488281 C 100.777344 109.625 109.726562 103.289062 119.320312 104.007812 C 119.746094 104.039062 120.164062 104.089844 120.574219 104.15625 C 122.066406 104.402344 123.359375 103.152344 123.113281 101.660156 C 122.867188 100.125 122.816406 98.5625 123.003906 97.011719 C 124.1875 87.148438 133.140625 80.8125 142.734375 81.53125 L 142.742188 81.53125 C 142.835938 80.457031 142.898438 79.382812 142.941406 78.3125 "/>
</g>
</g>
</g>
</g>
<g clip-path="url(#clip9)" clip-rule="nonzero">
<g clip-path="url(#clip10)" clip-rule="nonzero">
<g clip-path="url(#clip11)" clip-rule="nonzero">
<g clip-path="url(#clip12)" clip-rule="nonzero">
<path style=" stroke:none;fill-rule:nonzero;fill:rgb(82.348633%,63.139343%,30.198669%);fill-opacity:1;" d="M 76.175781 141.964844 C 76.183594 141.894531 76.203125 141.824219 76.207031 141.753906 C 75.085938 139.117188 73.476562 136.738281 71.332031 135.003906 C 66.363281 130.980469 58.96875 135.972656 53.140625 132.4375 C 50.363281 130.757812 48.460938 127.890625 46.628906 125.320312 C 44.535156 122.382812 42.117188 119.851562 39.683594 117.195312 C 35.5 112.625 32.210938 107.417969 28.03125 102.855469 C 21.234375 95.425781 13.328125 86.234375 17.480469 75.449219 C 18.8125 71.992188 20.445312 69.230469 20.125 65.390625 C 19.914062 62.878906 18.847656 60.53125 18.394531 58.070312 C 17.429688 52.808594 18.707031 47.328125 21.054688 42.574219 C 29.640625 25.1875 50.417969 22.628906 67.71875 21.777344 C 73.203125 21.503906 78.683594 20.949219 84.089844 22.191406 C 89.234375 23.371094 93.863281 25.894531 98.84375 27.558594 C 108.054688 30.636719 117.613281 29.703125 124.398438 37.914062 C 130.851562 45.726562 132.128906 56.285156 135.25 65.59375 C 136.488281 69.28125 137.847656 75.144531 140.976562 77.742188 C 141.664062 78.3125 142.03125 78.441406 141.769531 78.460938 C 142.15625 78.433594 142.554688 78.207031 142.957031 77.847656 C 144.082031 43.433594 118.703125 13.269531 83.839844 9.078125 C 47 4.652344 13.550781 30.898438 9.128906 67.699219 C 4.707031 104.5 30.984375 137.921875 67.824219 142.347656 C 70.636719 142.6875 73.429688 142.835938 76.191406 142.824219 C 76.183594 142.539062 76.183594 142.25 76.175781 141.964844 "/>
</g>
</g>
</g>
</g>
<g clip-path="url(#clip13)" clip-rule="nonzero">
<g clip-path="url(#clip14)" clip-rule="nonzero">
<g clip-path="url(#clip15)" clip-rule="nonzero">
<g clip-path="url(#clip16)" clip-rule="nonzero">
<path style=" stroke:none;fill-rule:nonzero;fill:rgb(36.079407%,19.60907%,7.839966%);fill-opacity:1;" d="M 125.992188 61.664062 C 126.066406 58.789062 126.125 55.835938 125.117188 53.140625 C 124.113281 50.449219 121.78125 48.046875 118.910156 47.847656 C 116.039062 47.648438 113.101562 50.445312 113.863281 53.21875 C 114.164062 54.308594 114.933594 55.203125 115.417969 56.230469 C 116.65625 58.855469 115.894531 61.984375 116.570312 64.808594 C 117.25 67.628906 121.113281 70.039062 122.890625 67.742188 C 123.820312 66.582031 124.75 65.421875 125.679688 64.265625 "/>
</g>
</g>
</g>
</g>
<g clip-path="url(#clip17)" clip-rule="nonzero">
<g clip-path="url(#clip18)" clip-rule="nonzero">
<g clip-path="url(#clip19)" clip-rule="nonzero">
<g clip-path="url(#clip20)" clip-rule="nonzero">
<path style=" stroke:none;fill-rule:nonzero;fill:rgb(36.079407%,19.60907%,7.839966%);fill-opacity:1;" d="M 83.773438 37.585938 C 87.125 36.945312 90.394531 34.644531 91.113281 31.304688 C 92.328125 25.652344 86.246094 21.371094 81.058594 18.804688 C 77.113281 16.847656 74.222656 19.746094 73.695312 23.792969 C 73.40625 25.980469 73.675781 28.238281 73.164062 30.386719 C 72.441406 33.40625 70.644531 37.019531 74.574219 38.222656 C 76.339844 38.761719 81.875 37.953125 83.773438 37.585938 "/>
</g>
</g>
</g>
</g>
<g clip-path="url(#clip21)" clip-rule="nonzero">
<g clip-path="url(#clip22)" clip-rule="nonzero">
<g clip-path="url(#clip23)" clip-rule="nonzero">
<g clip-path="url(#clip24)" clip-rule="nonzero">
<path style=" stroke:none;fill-rule:nonzero;fill:rgb(36.079407%,19.60907%,7.839966%);fill-opacity:1;" d="M 48.027344 89.332031 C 50.621094 88.835938 53.148438 87.054688 53.703125 84.476562 C 54.640625 80.101562 49.9375 76.792969 45.925781 74.804688 C 42.878906 73.292969 40.644531 75.535156 40.234375 78.664062 C 40.011719 80.355469 40.21875 82.101562 39.824219 83.761719 C 39.265625 86.097656 37.875 88.890625 40.914062 89.820312 C 42.277344 90.238281 46.558594 89.613281 48.027344 89.332031 "/>
</g>
</g>
</g>
</g>
<g clip-path="url(#clip25)" clip-rule="nonzero">
<g clip-path="url(#clip26)" clip-rule="nonzero">
<g clip-path="url(#clip27)" clip-rule="nonzero">
<g clip-path="url(#clip28)" clip-rule="nonzero">
<path style=" stroke:none;fill-rule:nonzero;fill:rgb(36.079407%,19.60907%,7.839966%);fill-opacity:1;" d="M 61.066406 117.175781 C 60.988281 116.667969 60.851562 116.183594 60.652344 115.734375 C 58.820312 111.65625 52.398438 111.667969 49.359375 114.171875 C 46.191406 116.777344 39.847656 128.636719 47.054688 129.503906 C 48.867188 129.722656 50.71875 129.265625 52.53125 129.503906 C 53.175781 129.585938 53.828125 129.753906 54.46875 129.636719 C 55.03125 129.527344 55.527344 129.199219 55.984375 128.847656 C 58.773438 126.675781 61.691406 121.167969 61.066406 117.175781 "/>
</g>
</g>
</g>
</g>
<g clip-path="url(#clip29)" clip-rule="nonzero">
<g clip-path="url(#clip30)" clip-rule="nonzero">
<g clip-path="url(#clip31)" clip-rule="nonzero">
<g clip-path="url(#clip32)" clip-rule="nonzero">
<path style=" stroke:none;fill-rule:nonzero;fill:rgb(36.079407%,19.60907%,7.839966%);fill-opacity:1;" d="M 30.167969 80.804688 C 30.367188 77.46875 29.890625 74.144531 28.660156 70.882812 C 28.320312 69.980469 27.660156 69.050781 26.703125 68.949219 C 22.832031 68.53125 19.898438 76.414062 19.882812 79.1875 C 19.863281 82.828125 19.4375 87.050781 22.222656 89.867188 C 23.3125 90.96875 25.039062 91.597656 26.457031 90.960938 C 27.949219 90.289062 28.574219 88.542969 29.042969 86.976562 C 29.664062 84.921875 30.046875 82.863281 30.167969 80.804688 "/>
</g>
</g>
</g>
</g>
<g clip-path="url(#clip33)" clip-rule="nonzero">
<g clip-path="url(#clip34)" clip-rule="nonzero">
<g clip-path="url(#clip35)" clip-rule="nonzero">
<g clip-path="url(#clip36)" clip-rule="nonzero">
<path style=" stroke:none;fill-rule:nonzero;fill:rgb(36.079407%,19.60907%,7.839966%);fill-opacity:1;" d="M 86.535156 76.347656 C 86.566406 72.984375 85.34375 69.570312 82.734375 66.148438 C 82.011719 65.195312 80.699219 64.191406 78.914062 63.988281 C 71.714844 63.171875 67.09375 70.851562 67.351562 73.65625 C 67.6875 77.339844 67.332031 81.574219 72.769531 84.707031 C 74.898438 85.933594 78.152344 86.746094 80.707031 86.246094 C 83.398438 85.71875 84.375 84.015625 85.089844 82.476562 C 86.023438 80.460938 86.519531 78.414062 86.535156 76.347656 "/>
</g>
</g>
</g>
</g>
<g clip-path="url(#clip37)" clip-rule="nonzero">
<g clip-path="url(#clip38)" clip-rule="nonzero">
<g clip-path="url(#clip39)" clip-rule="nonzero">
<g clip-path="url(#clip40)" clip-rule="nonzero">
<path style=" stroke:none;fill-rule:nonzero;fill:rgb(36.079407%,19.60907%,7.839966%);fill-opacity:1;" d="M 93.875 97.867188 C 92.679688 98.945312 92.015625 100.492188 90.964844 101.710938 C 90.023438 102.800781 88.789062 103.609375 87.855469 104.703125 C 86.917969 105.800781 86.308594 107.378906 86.921875 108.679688 C 87.238281 109.351562 87.835938 109.851562 88.484375 110.210938 C 92.664062 112.558594 95.945312 109.402344 98.394531 106.285156 C 98.777344 105.792969 99.152344 105.265625 99.273438 104.652344 C 99.835938 101.761719 98.074219 94.078125 93.875 97.867188 "/>
</g>
</g>
</g>
</g>
<g clip-path="url(#clip41)" clip-rule="nonzero">
<g clip-path="url(#clip42)" clip-rule="nonzero">
<g clip-path="url(#clip43)" clip-rule="nonzero">
<g clip-path="url(#clip44)" clip-rule="nonzero">
<path style=" stroke:none;fill-rule:nonzero;fill:rgb(36.079407%,19.60907%,7.839966%);fill-opacity:1;" d="M 39.296875 41.742188 C 40.066406 39.878906 40.832031 38.015625 41.601562 36.15625 C 42.367188 34.296875 42.941406 31.742188 41.273438 30.625 C 39.957031 29.742188 38.136719 30.511719 36.992188 31.605469 C 34.953125 33.5625 34.007812 36.363281 33.136719 39.042969 C 32.683594 40.433594 32.230469 41.824219 31.773438 43.210938 C 31.664062 43.554688 31.550781 43.914062 31.597656 44.269531 C 31.703125 45.054688 32.53125 45.539062 33.308594 45.675781 C 35.5625 46.082031 37.972656 44.308594 38.246094 42.035156 "/>
</g>
</g>
</g>
</g>
</g>
</svg>
